<svg xmlns="http://www.w3.org/2000/svg" width="1600" height="320" viewBox="0 0 1600 320">
  <defs>
    <linearGradient id="bg" x1="0" y1="0" x2="1" y2="0">
      <stop offset="0" stop-color="#ffffff" />
      <stop offset="0.55" stop-color="#f8fafc" />
      <stop offset="1" stop-color="#0b1220" />
    </linearGradient>
    <linearGradient id="right" x1="0" y1="0" x2="1" y2="1">
      <stop offset="0" stop-color="#0b1220" />
      <stop offset="1" stop-color="#111827" />
    </linearGradient>
    <linearGradient id="glass" x1="0" y1="0" x2="1" y2="1">
      <stop offset="0" stop-color="#94a3b8" stop-opacity="0.55" />
      <stop offset="1" stop-color="#e2e8f0" stop-opacity="0.18" />
    </linearGradient>
    <filter id="softShadow" x="-20%" y="-20%" width="140%" height="140%">
      <feDropShadow dx="0" dy="10" stdDeviation="16" flood-color="#000000" flood-opacity="0.18" />
    </filter>
  </defs>

  <rect width="1600" height="320" fill="url(#bg)" />

  <rect x="880" y="0" width="720" height="320" fill="url(#right)" />

  <polygon points="800,0 920,0 820,320 700,320" fill="#e5e7eb" opacity="0.85" />
  <polygon points="860,0 940,0 850,320 770,320" fill="#cbd5e1" opacity="0.35" />

  <circle cx="110" cy="236" r="50" fill="#0f172a" opacity="0.10" />
  <circle cx="110" cy="236" r="44" fill="#ffffff" />
  <circle cx="110" cy="236" r="44" fill="none" stroke="#e2e8f0" stroke-width="4" />
  <text x="110" y="252" text-anchor="middle" font-family="Arial Black, Arial, sans-serif" font-size="34" fill="#0f172a">
    TSL
  </text>

  <text x="180" y="92" font-family="Arial Black, Arial, sans-serif" font-size="36" fill="#0f172a" opacity="0.78">
    No.1 Tesla Community
  </text>

  <text x="176" y="202" font-family="Arial Black, Arial, sans-serif" font-size="140" fill="#2563eb" letter-spacing="2">
    CLUB TESLA
  </text>

  <text x="180" y="272" font-family="Arial Black, Arial, sans-serif" font-size="38" fill="#2563eb" opacity="0.90">
    클럽 테슬라 대경방 by 하쿠
  </text>

  <g transform="translate(975 95)" filter="url(#softShadow)">
    <path
      d="M75 162 C110 98 178 66 288 66 C398 66 466 98 501 162 L536 196 C551 210 560 230 560 252 L560 272 C560 292 544 308 524 308 L52 308 C32 308 16 292 16 272 L16 252 C16 230 25 210 40 196 Z"
      fill="#0b1220"
      opacity="0.92"
    />
    <path
      d="M140 162 C172 118 218 98 288 98 C358 98 404 118 436 162"
      fill="none"
      stroke="#93c5fd"
      stroke-width="10"
      stroke-linecap="round"
      opacity="0.55"
    />
    <path
      d="M160 160 C200 124 236 112 288 112 C340 112 376 124 416 160 L405 208 C399 232 378 248 352 248 L224 248 C198 248 177 232 171 208 Z"
      fill="url(#glass)"
      opacity="0.85"
    />
    <path
      d="M102 232 C150 222 200 216 288 216 C376 216 426 222 474 232"
      fill="none"
      stroke="#e2e8f0"
      stroke-width="6"
      stroke-linecap="round"
      opacity="0.35"
    />
    <path
      d="M86 244 C118 234 152 228 188 228"
      fill="none"
      stroke="#fbbf24"
      stroke-width="8"
      stroke-linecap="round"
      opacity="0.8"
    />
    <path
      d="M490 244 C458 234 424 228 388 228"
      fill="none"
      stroke="#fbbf24"
      stroke-width="8"
      stroke-linecap="round"
      opacity="0.8"
    />
    <circle cx="132" cy="300" r="22" fill="#0f172a" />
    <circle cx="132" cy="300" r="12" fill="#475569" />
    <circle cx="444" cy="300" r="22" fill="#0f172a" />
    <circle cx="444" cy="300" r="12" fill="#475569" />
  </g>

</svg>
